name C:\Users\tom_v\MusculoskeletalSpecialization\ResultsSprinting\Case_6\motion.mot
datacolumns 32
datarows 14
range 0.37737741 0.44278949
endheader 
time	pelvis_tilt	pelvis_list	pelvis_rotation	pelvis_tx	pelvis_ty	pelvis_tz	hip_flexion_r	hip_adduction_r	hip_rotation_r	knee_angle_r	ankle_angle_r	subtalar_angle_r	mtp_angle_r	hip_flexion_l	hip_adduction_l	hip_rotation_l	knee_angle_l	ankle_angle_l	subtalar_angle_l	mtp_angle_l	lumbar_extension	lumbar_bending	lumbar_rotation	arm_flex_r	arm_add_r	arm_rot_r	elbow_flex_r	arm_flex_l	arm_add_l	arm_rot_l	elbow_flex_l	
          0.37737741	         -8.70358602	         -0.23928834	         -1.22787800	          1.24823259	          0.94175365	         -0.00130407	         36.19672185	          5.31250324	          3.80304267	        -58.82460041	         17.54251730	          5.17294934	          3.14341429	         13.25255556	          6.75296053	          9.09844428	        -33.15794984	         14.50252089	          3.11536541	         26.36842538	         -8.89457167	          0.19663183	         -2.29455685	         19.64123520	          0.18304552	         -8.66738195	          1.83716569	         -1.08396189	         -8.64493414	          8.69395427	         51.05118202	
          0.38240911	         -8.72758396	         -0.43570752	         -1.27049227	          1.26498626	          0.94342760	         -0.00118539	         36.99716923	          5.58796139	          3.77957808	        -57.64852260	         17.65788024	          5.18191406	          2.94261760	         11.92571124	          6.35090323	          8.91727740	        -32.48121019	         13.32082641	          3.56596921	         27.72390552	         -8.89054554	          0.53862324	         -2.47142689	         20.00121538	          0.28695912	         -9.09256025	          1.32293694	         -1.64395862	         -8.79733287	          8.56717061	         52.15771975	
          0.38744081	         -8.75096066	         -0.63059622	         -1.31162332	          1.28181991	          0.94507684	         -0.00106277	         37.73268696	          5.85320532	          3.76708455	        -56.37115934	         17.71254233	          5.21853810	          2.75477196	         10.60342927	          5.94753009	          8.72290662	        -31.79914621	         12.04608424	          4.03033555	         29.04856340	         -8.87844675	          0.87919154	         -2.63933037	         20.30092383	          0.37987528	         -9.46241265	          0.91640302	         -2.17316762	         -8.92253410	          8.42743725	         53.14531391	
          0.39247251	         -8.77344638	         -0.82255884	         -1.35159718	          1.29872621	          0.94667696	         -0.00093616	         38.40657912	          6.10681637	          3.76667233	        -55.00485274	         17.71388642	          5.27874420	          2.57884255	          9.29539281	          5.54693785	          8.51986466	        -31.12850828	         10.67957630	          4.50902173	         30.34057947	         -8.85921184	          1.21639018	         -2.79833298	         20.54649256	          0.46311984	         -9.77364402	          0.60394001	         -2.67038987	         -9.02175791	          8.27683949	         54.01494061	
          0.39750421	         -8.79478990	         -1.01017917	         -1.39086250	          1.31569636	          0.94820417	         -0.00080460	         39.02174284	          6.34756573	          3.77934992	        -53.55989935	         17.66921700	          5.35872447	          2.41381899	          8.01175555	          5.15335798	          8.31528777	        -30.48718461	          9.22501940	          5.00228326	         31.59447330	         -8.83396088	          1.54800840	         -2.94816454	         20.74422437	          0.53783673	        -10.02315207	          0.37186173	         -3.13432953	         -9.09641480	          8.11705198	         54.76832642	
          0.40253590	         -8.81472813	         -1.19130205	         -1.42980772	          1.33271842	          0.94963528	         -0.00066842	         39.58151594	          6.57335180	          3.80591358	        -52.04616053	         17.58538115	          5.45404102	          2.25893593	          6.76465653	          4.77170672	          8.11686834	        -29.89760076	          7.71080684	          5.52116135	         32.76316601	         -8.80434549	          1.87118165	         -3.08843476	         20.90082311	          0.60487633	        -10.20787672	          0.20670153	         -3.56332636	         -9.14803239	          7.94950070	         55.40807228	
          0.40756760	         -8.83312135	         -1.36152081	         -1.46859647	          1.34977601	          0.95094873	         -0.00052940	         40.09043366	          6.77986187	          3.84712202	        -50.47478556	         17.46816850	          5.56150024	          2.11354483	          5.56932985	          4.40590728	          7.92583175	        -29.38606199	          6.17488196	          6.09615588	         33.78902545	         -8.77268881	          2.18073426	         -3.21871368	         21.02296718	          0.66506957	        -10.32525879	          0.09637735	         -3.95492888	         -9.17870875	          7.77581021	         55.93763359	
          0.41259930	         -8.84988064	         -1.51712444	         -1.50765076	          1.36685311	          0.95212762	         -0.00039028	         40.54968608	          6.96457622	          3.90319968	        -48.85108005	         17.32385642	          5.67658131	          1.97723444	          4.44155069	          4.06356502	          7.75234786	        -28.97893298	          4.66321353	          6.72533951	         34.57096578	         -8.74143123	          2.47240337	         -3.33787867	         21.11654977	          0.71863474	        -10.37292771	          0.03064095	         -4.30630395	         -9.18985799	          7.59726061	         56.35954411	
          0.41763100	         -8.86496983	         -1.65725714	         -1.54710638	          1.38394011	          0.95316307	         -0.00025288	         40.95615503	          7.12768331	          3.97321744	        -47.17288500	         17.15506656	          5.79575557	          1.84962331	          3.39219019	          3.74929532	          7.59563537	        -28.69334957	          3.20262431	          7.38928807	         35.04300672	         -8.71229976	          2.74508877	         -3.44508866	         21.18577372	          0.76543176	        -10.34834270	          0.00158213	         -4.61530126	         -9.18187112	          7.41413626	         56.67414430	
          0.42266270	         -8.87847050	         -1.78205885	         -1.58634207	          1.40103100	          0.95405017	         -0.00011708	         41.30399898	          7.26954058	          4.05544253	        -45.43460857	         16.96578852	          5.91561550	          1.73008411	          2.42823065	          3.46335021	          7.45162449	        -28.53373809	          1.75995418	          8.06985529	         35.25793733	         -8.68646696	          2.99831844	         -3.53994408	         21.23282674	          0.80544833	        -10.24998575	          0.00453308	         -4.88014033	         -9.15527718	          7.22644595	         56.88139840	
          0.42769440	         -8.89015934	         -1.89143567	         -1.62427357	          1.41812216	          0.95478355	          0.00001687	         41.59035899	          7.39089037	          4.15009270	        -43.64625713	         16.75701273	          6.03239807	          1.61840479	          1.55806849	          3.20610331	          7.31948018	        -28.50961659	          0.31765447	          8.75858422	         35.24376955	         -8.66463514	          3.23131468	         -3.62198428	         21.25839508	          0.83846850	        -10.07773282	          0.03713821	         -5.09897411	         -9.11083316	          7.03482748	         56.98120400	
          0.43272610	         -8.89961881	         -1.98519822	         -1.65954548	          1.43521541	          0.95535663	          0.00014928	         41.81437431	          7.49276101	          4.25734678	        -41.83141441	         16.53092201	          6.14255925	          1.51421846	          0.79014582	          2.97792266	          7.19979446	        -28.63274914	         -1.12575154	          9.45027812	         34.99808390	         -8.64616031	          3.44296882	         -3.69065560	         21.26119054	          0.86412440	         -9.83272460	          0.09908005	         -5.27037845	         -9.04948138	          6.84051002	         56.97294107	
          0.43775780	         -8.90633100	         -2.06377780	         -1.69033064	          1.45231426	          0.95576138	          0.00028190	         41.97549656	          7.57711378	          4.37702236	        -40.01889801	         16.28973351	          6.24291443	          1.41761350	          0.13345128	          2.77862134	          7.09321238	        -28.91820489	         -2.55620041	         10.13810198	         34.48943667	         -8.62985102	          3.63234464	         -3.74560204	         21.23868260	          0.88207360	         -9.51706257	          0.19205967	         -5.39333393	         -8.97245141	          6.64457974	         56.85676067	
          0.44278949	         -8.90981165	         -2.12857667	         -1.71476872	          1.46942359	          0.95598999	          0.00041692	         42.07193505	          7.64703616	          4.50812169	        -38.23752891	         16.03353360	          6.33040247	          1.32859662	         -0.40546264	          2.60748282	          6.99754600	        -29.37365681	         -3.96622648	         10.80103465	         33.68967570	         -8.61422458	          3.79945731	         -3.78652057	         21.18758264	          0.89177239	         -9.13328093	          0.31943540	         -5.46729789	         -8.88072410	          6.44759986	         56.63315446	
